<mxfile host="app.diagrams.net" agent="Mozilla/5.0 (Windows NT 10.0; Win64; x64) AppleWebKit/537.36 (KHTML, like Gecko) Chrome/130.0.0.0 Safari/537.36" version="24.8.4">
  <diagram id="Ht1M8jgEwFfnCIfOTk4-" name="Page-1">
    <mxGraphModel dx="1908" dy="1145" grid="1" gridSize="10" guides="1" tooltips="1" connect="1" arrows="1" fold="1" page="1" pageScale="1" pageWidth="1169" pageHeight="827" math="0" shadow="0">
      <root>
        <mxCell id="0" />
        <mxCell id="1" parent="0" />
        <mxCell id="UmNjkbrYyaK0S5LqLpap-30" value="Isolated subnet" style="points=[[0,0],[0.25,0],[0.5,0],[0.75,0],[1,0],[1,0.25],[1,0.5],[1,0.75],[1,1],[0.75,1],[0.5,1],[0.25,1],[0,1],[0,0.75],[0,0.5],[0,0.25]];outlineConnect=0;gradientColor=none;html=1;whiteSpace=wrap;fontSize=12;fontStyle=0;container=1;pointerEvents=0;collapsible=0;recursiveResize=0;shape=mxgraph.aws4.group;grIcon=mxgraph.aws4.group_security_group;grStroke=0;strokeColor=#00A4A6;fillColor=#E6F6F7;verticalAlign=top;align=left;spacingLeft=30;fontColor=#147EBA;dashed=0;" vertex="1" parent="1">
          <mxGeometry x="980" y="310" width="309" height="180.5" as="geometry" />
        </mxCell>
        <mxCell id="UmNjkbrYyaK0S5LqLpap-31" value="RDS Proxy" style="sketch=0;outlineConnect=0;fontColor=#232F3E;gradientColor=none;fillColor=#C925D1;strokeColor=none;dashed=0;verticalLabelPosition=bottom;verticalAlign=top;align=center;html=1;fontSize=12;fontStyle=0;aspect=fixed;pointerEvents=1;shape=mxgraph.aws4.rds_proxy;" vertex="1" parent="UmNjkbrYyaK0S5LqLpap-30">
          <mxGeometry x="40" y="52" width="78" height="78" as="geometry" />
        </mxCell>
        <mxCell id="UmNjkbrYyaK0S5LqLpap-32" value="Aurora Instance" style="sketch=0;outlineConnect=0;fontColor=#232F3E;gradientColor=none;fillColor=#C925D1;strokeColor=none;dashed=0;verticalLabelPosition=bottom;verticalAlign=top;align=center;html=1;fontSize=12;fontStyle=0;aspect=fixed;pointerEvents=1;shape=mxgraph.aws4.aurora_instance;" vertex="1" parent="UmNjkbrYyaK0S5LqLpap-30">
          <mxGeometry x="188" y="51" width="78" height="78" as="geometry" />
        </mxCell>
        <mxCell id="UmNjkbrYyaK0S5LqLpap-33" style="edgeStyle=orthogonalEdgeStyle;rounded=0;orthogonalLoop=1;jettySize=auto;html=1;startArrow=open;startFill=0;endArrow=open;endFill=0;strokeWidth=2;strokeColor=#808080;" edge="1" parent="UmNjkbrYyaK0S5LqLpap-30" source="UmNjkbrYyaK0S5LqLpap-31" target="UmNjkbrYyaK0S5LqLpap-32">
          <mxGeometry relative="1" as="geometry">
            <mxPoint x="-272" y="282" as="sourcePoint" />
            <mxPoint x="-129.49999999999977" y="190.07692307692298" as="targetPoint" />
          </mxGeometry>
        </mxCell>
        <mxCell id="UEzPUAAOIrF-is8g5C7q-128" style="edgeStyle=orthogonalEdgeStyle;rounded=0;orthogonalLoop=1;jettySize=auto;html=1;startArrow=open;startFill=0;endArrow=open;endFill=0;strokeWidth=2;strokeColor=#808080;entryX=0;entryY=0.5;entryDx=0;entryDy=0;entryPerimeter=0;" parent="1" source="UEzPUAAOIrF-is8g5C7q-109" target="UmNjkbrYyaK0S5LqLpap-4" edge="1">
          <mxGeometry relative="1" as="geometry" />
        </mxCell>
        <mxCell id="UEzPUAAOIrF-is8g5C7q-109" value="User" style="outlineConnect=0;gradientColor=none;fontColor=#545B64;strokeColor=none;fillColor=#879196;dashed=0;verticalLabelPosition=bottom;verticalAlign=top;align=center;html=1;fontSize=12;fontStyle=0;aspect=fixed;shape=mxgraph.aws4.illustration_desktop;pointerEvents=1;labelBackgroundColor=#ffffff;" parent="1" vertex="1">
          <mxGeometry x="40" y="236" width="100" height="91" as="geometry" />
        </mxCell>
        <mxCell id="UmNjkbrYyaK0S5LqLpap-2" value="AWS Cloud" style="points=[[0,0],[0.25,0],[0.5,0],[0.75,0],[1,0],[1,0.25],[1,0.5],[1,0.75],[1,1],[0.75,1],[0.5,1],[0.25,1],[0,1],[0,0.75],[0,0.5],[0,0.25]];outlineConnect=0;gradientColor=none;html=1;whiteSpace=wrap;fontSize=12;fontStyle=0;container=1;pointerEvents=0;collapsible=0;recursiveResize=0;shape=mxgraph.aws4.group;grIcon=mxgraph.aws4.group_aws_cloud;strokeColor=#232F3E;fillColor=none;verticalAlign=top;align=left;spacingLeft=30;fontColor=#232F3E;dashed=0;" vertex="1" parent="1">
          <mxGeometry x="209" width="1151" height="720" as="geometry" />
        </mxCell>
        <mxCell id="UmNjkbrYyaK0S5LqLpap-15" value="VPC" style="points=[[0,0],[0.25,0],[0.5,0],[0.75,0],[1,0],[1,0.25],[1,0.5],[1,0.75],[1,1],[0.75,1],[0.5,1],[0.25,1],[0,1],[0,0.75],[0,0.5],[0,0.25]];outlineConnect=0;gradientColor=none;html=1;whiteSpace=wrap;fontSize=12;fontStyle=0;container=1;pointerEvents=0;collapsible=0;recursiveResize=0;shape=mxgraph.aws4.group;grIcon=mxgraph.aws4.group_vpc2;strokeColor=#8C4FFF;fillColor=none;verticalAlign=top;align=left;spacingLeft=30;fontColor=#AAB7B8;dashed=0;" vertex="1" parent="UmNjkbrYyaK0S5LqLpap-2">
          <mxGeometry x="320" y="40" width="790" height="510" as="geometry" />
        </mxCell>
        <mxCell id="UmNjkbrYyaK0S5LqLpap-12" value="Public subnet" style="points=[[0,0],[0.25,0],[0.5,0],[0.75,0],[1,0],[1,0.25],[1,0.5],[1,0.75],[1,1],[0.75,1],[0.5,1],[0.25,1],[0,1],[0,0.75],[0,0.5],[0,0.25]];outlineConnect=0;gradientColor=none;html=1;whiteSpace=wrap;fontSize=12;fontStyle=0;container=1;pointerEvents=0;collapsible=0;recursiveResize=0;shape=mxgraph.aws4.group;grIcon=mxgraph.aws4.group_security_group;grStroke=0;strokeColor=#7AA116;fillColor=#F2F6E8;verticalAlign=top;align=left;spacingLeft=30;fontColor=#248814;dashed=0;" vertex="1" parent="UmNjkbrYyaK0S5LqLpap-15">
          <mxGeometry x="50" y="40" width="180" height="190" as="geometry" />
        </mxCell>
        <mxCell id="UmNjkbrYyaK0S5LqLpap-22" value="EC2" style="sketch=0;points=[[0,0,0],[0.25,0,0],[0.5,0,0],[0.75,0,0],[1,0,0],[0,1,0],[0.25,1,0],[0.5,1,0],[0.75,1,0],[1,1,0],[0,0.25,0],[0,0.5,0],[0,0.75,0],[1,0.25,0],[1,0.5,0],[1,0.75,0]];outlineConnect=0;fontColor=#232F3E;fillColor=#ED7100;strokeColor=#ffffff;dashed=0;verticalLabelPosition=bottom;verticalAlign=top;align=center;html=1;fontSize=12;fontStyle=0;aspect=fixed;shape=mxgraph.aws4.resourceIcon;resIcon=mxgraph.aws4.ec2;" vertex="1" parent="UmNjkbrYyaK0S5LqLpap-12">
          <mxGeometry x="51" y="60" width="78" height="78" as="geometry" />
        </mxCell>
        <mxCell id="UmNjkbrYyaK0S5LqLpap-14" value="Private subnet" style="points=[[0,0],[0.25,0],[0.5,0],[0.75,0],[1,0],[1,0.25],[1,0.5],[1,0.75],[1,1],[0.75,1],[0.5,1],[0.25,1],[0,1],[0,0.75],[0,0.5],[0,0.25]];outlineConnect=0;gradientColor=none;html=1;whiteSpace=wrap;fontSize=12;fontStyle=0;container=1;pointerEvents=0;collapsible=0;recursiveResize=0;shape=mxgraph.aws4.group;grIcon=mxgraph.aws4.group_security_group;grStroke=0;strokeColor=#00A4A6;fillColor=#E6F6F7;verticalAlign=top;align=left;spacingLeft=30;fontColor=#147EBA;dashed=0;" vertex="1" parent="UmNjkbrYyaK0S5LqLpap-15">
          <mxGeometry x="260" y="40" width="160" height="190" as="geometry" />
        </mxCell>
        <mxCell id="UEzPUAAOIrF-is8g5C7q-115" value="Lambda&lt;br&gt;function" style="outlineConnect=0;fontColor=#232F3E;gradientColor=none;fillColor=#D05C17;strokeColor=none;dashed=0;verticalLabelPosition=bottom;verticalAlign=top;align=center;html=1;fontSize=12;fontStyle=0;aspect=fixed;pointerEvents=1;shape=mxgraph.aws4.lambda_function;labelBackgroundColor=none;" parent="UmNjkbrYyaK0S5LqLpap-14" vertex="1">
          <mxGeometry x="41" y="56" width="78" height="78" as="geometry" />
        </mxCell>
        <mxCell id="UmNjkbrYyaK0S5LqLpap-19" value="Isolated subnet" style="points=[[0,0],[0.25,0],[0.5,0],[0.75,0],[1,0],[1,0.25],[1,0.5],[1,0.75],[1,1],[0.75,1],[0.5,1],[0.25,1],[0,1],[0,0.75],[0,0.5],[0,0.25]];outlineConnect=0;gradientColor=none;html=1;whiteSpace=wrap;fontSize=12;fontStyle=0;container=1;pointerEvents=0;collapsible=0;recursiveResize=0;shape=mxgraph.aws4.group;grIcon=mxgraph.aws4.group_security_group;grStroke=0;strokeColor=#00A4A6;fillColor=#E6F6F7;verticalAlign=top;align=left;spacingLeft=30;fontColor=#147EBA;dashed=0;" vertex="1" parent="UmNjkbrYyaK0S5LqLpap-15">
          <mxGeometry x="450" y="40" width="310" height="190" as="geometry" />
        </mxCell>
        <mxCell id="UmNjkbrYyaK0S5LqLpap-9" value="RDS Proxy" style="sketch=0;outlineConnect=0;fontColor=#232F3E;gradientColor=none;fillColor=#C925D1;strokeColor=none;dashed=0;verticalLabelPosition=bottom;verticalAlign=top;align=center;html=1;fontSize=12;fontStyle=0;aspect=fixed;pointerEvents=1;shape=mxgraph.aws4.rds_proxy;" vertex="1" parent="UmNjkbrYyaK0S5LqLpap-19">
          <mxGeometry x="40" y="56" width="78" height="78" as="geometry" />
        </mxCell>
        <mxCell id="UmNjkbrYyaK0S5LqLpap-11" value="Aurora Instance" style="sketch=0;outlineConnect=0;fontColor=#232F3E;gradientColor=none;fillColor=#C925D1;strokeColor=none;dashed=0;verticalLabelPosition=bottom;verticalAlign=top;align=center;html=1;fontSize=12;fontStyle=0;aspect=fixed;pointerEvents=1;shape=mxgraph.aws4.aurora_instance;" vertex="1" parent="UmNjkbrYyaK0S5LqLpap-19">
          <mxGeometry x="188" y="55" width="78" height="78" as="geometry" />
        </mxCell>
        <mxCell id="UmNjkbrYyaK0S5LqLpap-20" style="edgeStyle=orthogonalEdgeStyle;rounded=0;orthogonalLoop=1;jettySize=auto;html=1;startArrow=open;startFill=0;endArrow=open;endFill=0;strokeWidth=2;strokeColor=#808080;" edge="1" parent="UmNjkbrYyaK0S5LqLpap-19" source="UmNjkbrYyaK0S5LqLpap-9" target="UmNjkbrYyaK0S5LqLpap-11">
          <mxGeometry relative="1" as="geometry">
            <mxPoint x="-272" y="282" as="sourcePoint" />
            <mxPoint x="-129.49999999999977" y="190.07692307692298" as="targetPoint" />
          </mxGeometry>
        </mxCell>
        <mxCell id="UmNjkbrYyaK0S5LqLpap-21" style="edgeStyle=orthogonalEdgeStyle;rounded=0;orthogonalLoop=1;jettySize=auto;html=1;startArrow=open;startFill=0;endArrow=open;endFill=0;strokeWidth=2;strokeColor=#808080;entryX=0.979;entryY=0.509;entryDx=0;entryDy=0;entryPerimeter=0;" edge="1" parent="UmNjkbrYyaK0S5LqLpap-15" source="UmNjkbrYyaK0S5LqLpap-9" target="UEzPUAAOIrF-is8g5C7q-115">
          <mxGeometry relative="1" as="geometry">
            <mxPoint x="-58" y="291" as="sourcePoint" />
            <mxPoint x="383" y="150" as="targetPoint" />
          </mxGeometry>
        </mxCell>
        <mxCell id="UmNjkbrYyaK0S5LqLpap-23" value="Internet Gateway" style="sketch=0;outlineConnect=0;fontColor=#232F3E;gradientColor=none;fillColor=#8C4FFF;strokeColor=none;dashed=0;verticalLabelPosition=bottom;verticalAlign=top;align=center;html=1;fontSize=12;fontStyle=0;aspect=fixed;pointerEvents=1;shape=mxgraph.aws4.internet_gateway;" vertex="1" parent="UmNjkbrYyaK0S5LqLpap-15">
          <mxGeometry x="-39" y="100" width="78" height="78" as="geometry" />
        </mxCell>
        <mxCell id="UmNjkbrYyaK0S5LqLpap-16" value="Availability Zone" style="fillColor=none;strokeColor=#147EBA;dashed=1;verticalAlign=top;fontStyle=0;fontColor=#147EBA;whiteSpace=wrap;html=1;" vertex="1" parent="UmNjkbrYyaK0S5LqLpap-15">
          <mxGeometry x="31" y="15" width="739" height="220" as="geometry" />
        </mxCell>
        <mxCell id="UmNjkbrYyaK0S5LqLpap-49" value="Availability Zone" style="fillColor=none;strokeColor=#147EBA;dashed=1;verticalAlign=top;fontStyle=0;fontColor=#147EBA;whiteSpace=wrap;html=1;" vertex="1" parent="UmNjkbrYyaK0S5LqLpap-15">
          <mxGeometry x="31" y="247" width="739" height="213" as="geometry" />
        </mxCell>
        <mxCell id="UmNjkbrYyaK0S5LqLpap-10" value="Aurora Cluster" style="sketch=0;points=[[0,0,0],[0.25,0,0],[0.5,0,0],[0.75,0,0],[1,0,0],[0,1,0],[0.25,1,0],[0.5,1,0],[0.75,1,0],[1,1,0],[0,0.25,0],[0,0.5,0],[0,0.75,0],[1,0.25,0],[1,0.5,0],[1,0.75,0]];outlineConnect=0;fontColor=#232F3E;fillColor=#C925D1;strokeColor=#ffffff;dashed=0;verticalLabelPosition=bottom;verticalAlign=top;align=center;html=1;fontSize=12;fontStyle=0;aspect=fixed;shape=mxgraph.aws4.resourceIcon;resIcon=mxgraph.aws4.aurora;" vertex="1" parent="UmNjkbrYyaK0S5LqLpap-15">
          <mxGeometry x="640" y="210" width="78" height="78" as="geometry" />
        </mxCell>
        <mxCell id="UmNjkbrYyaK0S5LqLpap-53" style="edgeStyle=orthogonalEdgeStyle;rounded=0;orthogonalLoop=1;jettySize=auto;html=1;startArrow=open;startFill=0;endArrow=open;endFill=0;strokeWidth=2;strokeColor=#808080;exitX=0.095;exitY=0.568;exitDx=0;exitDy=0;exitPerimeter=0;" edge="1" parent="UmNjkbrYyaK0S5LqLpap-15" source="UmNjkbrYyaK0S5LqLpap-16">
          <mxGeometry relative="1" as="geometry">
            <mxPoint x="-29" y="149" as="sourcePoint" />
            <mxPoint x="41" y="140" as="targetPoint" />
            <Array as="points">
              <mxPoint x="71" y="140" />
              <mxPoint x="71" y="140" />
            </Array>
          </mxGeometry>
        </mxCell>
        <mxCell id="UmNjkbrYyaK0S5LqLpap-4" value="Cloud Front" style="sketch=0;points=[[0,0,0],[0.25,0,0],[0.5,0,0],[0.75,0,0],[1,0,0],[0,1,0],[0.25,1,0],[0.5,1,0],[0.75,1,0],[1,1,0],[0,0.25,0],[0,0.5,0],[0,0.75,0],[1,0.25,0],[1,0.5,0],[1,0.75,0]];outlineConnect=0;fontColor=#232F3E;fillColor=#8C4FFF;strokeColor=#ffffff;dashed=0;verticalLabelPosition=bottom;verticalAlign=top;align=center;html=1;fontSize=12;fontStyle=0;aspect=fixed;shape=mxgraph.aws4.resourceIcon;resIcon=mxgraph.aws4.cloudfront;" vertex="1" parent="UmNjkbrYyaK0S5LqLpap-2">
          <mxGeometry x="31" y="242.5" width="78" height="78" as="geometry" />
        </mxCell>
        <mxCell id="UEzPUAAOIrF-is8g5C7q-111" value="Amazon &lt;br&gt;Cognito" style="outlineConnect=0;fontColor=#232F3E;gradientColor=#F54749;gradientDirection=north;fillColor=#C7131F;strokeColor=#ffffff;dashed=0;verticalLabelPosition=bottom;verticalAlign=top;align=center;html=1;fontSize=12;fontStyle=0;aspect=fixed;shape=mxgraph.aws4.resourceIcon;resIcon=mxgraph.aws4.cognito;labelBackgroundColor=#ffffff;" parent="UmNjkbrYyaK0S5LqLpap-2" vertex="1">
          <mxGeometry x="31" y="430" width="78" height="78" as="geometry" />
        </mxCell>
        <mxCell id="UEzPUAAOIrF-is8g5C7q-116" value="Amazon S3" style="outlineConnect=0;fontColor=#232F3E;gradientColor=#60A337;gradientDirection=north;fillColor=#277116;strokeColor=#ffffff;dashed=0;verticalLabelPosition=bottom;verticalAlign=top;align=center;html=1;fontSize=12;fontStyle=0;aspect=fixed;shape=mxgraph.aws4.resourceIcon;resIcon=mxgraph.aws4.s3;labelBackgroundColor=#ffffff;" parent="UmNjkbrYyaK0S5LqLpap-2" vertex="1">
          <mxGeometry x="161.00000000000023" y="430" width="78" height="78" as="geometry" />
        </mxCell>
        <mxCell id="UmNjkbrYyaK0S5LqLpap-6" style="edgeStyle=orthogonalEdgeStyle;rounded=0;orthogonalLoop=1;jettySize=auto;html=1;startArrow=open;startFill=0;endArrow=open;endFill=0;strokeWidth=2;strokeColor=#808080;entryX=1;entryY=0.75;entryDx=0;entryDy=0;entryPerimeter=0;" edge="1" parent="UmNjkbrYyaK0S5LqLpap-2" source="UEzPUAAOIrF-is8g5C7q-116" target="UmNjkbrYyaK0S5LqLpap-4">
          <mxGeometry relative="1" as="geometry">
            <mxPoint x="292" y="261" as="sourcePoint" />
            <mxPoint x="210" y="348" as="targetPoint" />
          </mxGeometry>
        </mxCell>
        <mxCell id="UEzPUAAOIrF-is8g5C7q-114" value="Amazon API&lt;br&gt;Gateway&lt;br&gt;" style="outlineConnect=0;fontColor=#232F3E;gradientColor=#945DF2;gradientDirection=north;fillColor=#5A30B5;strokeColor=#ffffff;dashed=0;verticalLabelPosition=bottom;verticalAlign=top;align=center;html=1;fontSize=12;fontStyle=0;aspect=fixed;shape=mxgraph.aws4.resourceIcon;resIcon=mxgraph.aws4.api_gateway;labelBackgroundColor=#ffffff;" parent="UmNjkbrYyaK0S5LqLpap-2" vertex="1">
          <mxGeometry x="161" y="242.5" width="78" height="78" as="geometry" />
        </mxCell>
        <mxCell id="UmNjkbrYyaK0S5LqLpap-8" style="edgeStyle=orthogonalEdgeStyle;rounded=0;orthogonalLoop=1;jettySize=auto;html=1;startArrow=open;startFill=0;endArrow=open;endFill=0;strokeWidth=2;strokeColor=#808080;entryX=1;entryY=0.5;entryDx=0;entryDy=0;entryPerimeter=0;" edge="1" parent="UmNjkbrYyaK0S5LqLpap-2" source="UEzPUAAOIrF-is8g5C7q-114" target="UmNjkbrYyaK0S5LqLpap-4">
          <mxGeometry relative="1" as="geometry">
            <mxPoint x="171" y="529" as="sourcePoint" />
            <mxPoint x="129" y="406" as="targetPoint" />
          </mxGeometry>
        </mxCell>
        <mxCell id="UEzPUAAOIrF-is8g5C7q-126" style="edgeStyle=orthogonalEdgeStyle;rounded=0;orthogonalLoop=1;jettySize=auto;html=1;startArrow=open;startFill=0;endArrow=open;endFill=0;strokeWidth=2;strokeColor=#808080;entryX=1.007;entryY=0.35;entryDx=0;entryDy=0;entryPerimeter=0;" parent="UmNjkbrYyaK0S5LqLpap-2" source="UEzPUAAOIrF-is8g5C7q-115" target="UEzPUAAOIrF-is8g5C7q-114" edge="1">
          <mxGeometry relative="1" as="geometry">
            <Array as="points">
              <mxPoint x="571" y="185" />
              <mxPoint x="571" y="270" />
            </Array>
          </mxGeometry>
        </mxCell>
        <mxCell id="UmNjkbrYyaK0S5LqLpap-25" value="Secret Manager" style="sketch=0;points=[[0,0,0],[0.25,0,0],[0.5,0,0],[0.75,0,0],[1,0,0],[0,1,0],[0.25,1,0],[0.5,1,0],[0.75,1,0],[1,1,0],[0,0.25,0],[0,0.5,0],[0,0.75,0],[1,0.25,0],[1,0.5,0],[1,0.75,0]];outlineConnect=0;fontColor=#232F3E;fillColor=#DD344C;strokeColor=#ffffff;dashed=0;verticalLabelPosition=bottom;verticalAlign=top;align=center;html=1;fontSize=12;fontStyle=0;aspect=fixed;shape=mxgraph.aws4.resourceIcon;resIcon=mxgraph.aws4.secrets_manager;" vertex="1" parent="UmNjkbrYyaK0S5LqLpap-2">
          <mxGeometry x="161" y="586" width="78" height="78" as="geometry" />
        </mxCell>
        <mxCell id="UmNjkbrYyaK0S5LqLpap-24" value="VPC endpoint" style="sketch=0;outlineConnect=0;fontColor=#232F3E;gradientColor=none;fillColor=#8C4FFF;strokeColor=none;dashed=0;verticalLabelPosition=bottom;verticalAlign=top;align=center;html=1;fontSize=12;fontStyle=0;aspect=fixed;pointerEvents=1;shape=mxgraph.aws4.endpoints;" vertex="1" parent="UmNjkbrYyaK0S5LqLpap-2">
          <mxGeometry x="621" y="508" width="78" height="78" as="geometry" />
        </mxCell>
        <mxCell id="UmNjkbrYyaK0S5LqLpap-48" style="edgeStyle=orthogonalEdgeStyle;rounded=0;orthogonalLoop=1;jettySize=auto;html=1;startArrow=open;startFill=0;endArrow=open;endFill=0;strokeWidth=2;strokeColor=#808080;entryX=1;entryY=0.5;entryDx=0;entryDy=0;entryPerimeter=0;" edge="1" parent="UmNjkbrYyaK0S5LqLpap-2" source="UmNjkbrYyaK0S5LqLpap-24" target="UmNjkbrYyaK0S5LqLpap-25">
          <mxGeometry relative="1" as="geometry">
            <mxPoint x="632" y="410" as="sourcePoint" />
            <mxPoint x="249" y="291" as="targetPoint" />
            <Array as="points" />
          </mxGeometry>
        </mxCell>
        <mxCell id="UEzPUAAOIrF-is8g5C7q-121" value="Amazon&lt;br&gt;CloudWatch&lt;br&gt;" style="outlineConnect=0;fontColor=#232F3E;gradientColor=#F34482;gradientDirection=north;fillColor=#BC1356;strokeColor=#ffffff;dashed=0;verticalLabelPosition=bottom;verticalAlign=top;align=center;html=1;fontSize=12;fontStyle=0;aspect=fixed;shape=mxgraph.aws4.resourceIcon;resIcon=mxgraph.aws4.cloudwatch;labelBackgroundColor=#ffffff;" parent="UmNjkbrYyaK0S5LqLpap-2" vertex="1">
          <mxGeometry x="731.0000000000002" y="600" width="78" height="78" as="geometry" />
        </mxCell>
        <mxCell id="UEzPUAAOIrF-is8g5C7q-123" value="Amazon&lt;br&gt;CloudWatch Logs&lt;br&gt;" style="outlineConnect=0;fontColor=#232F3E;gradientColor=none;gradientDirection=north;fillColor=#F34482;strokeColor=none;dashed=0;verticalLabelPosition=bottom;verticalAlign=top;align=center;html=1;fontSize=12;fontStyle=0;aspect=fixed;shape=mxgraph.aws4.cloudwatch;labelBackgroundColor=#ffffff;" parent="UmNjkbrYyaK0S5LqLpap-2" vertex="1">
          <mxGeometry x="841.0000000000002" y="600" width="78" height="78" as="geometry" />
        </mxCell>
        <mxCell id="UmNjkbrYyaK0S5LqLpap-54" value="Amazon S3" style="outlineConnect=0;fontColor=#232F3E;gradientColor=#60A337;gradientDirection=north;fillColor=#277116;strokeColor=#ffffff;dashed=0;verticalLabelPosition=bottom;verticalAlign=top;align=center;html=1;fontSize=12;fontStyle=0;aspect=fixed;shape=mxgraph.aws4.resourceIcon;resIcon=mxgraph.aws4.s3;labelBackgroundColor=#ffffff;" vertex="1" parent="UmNjkbrYyaK0S5LqLpap-2">
          <mxGeometry x="951.0000000000002" y="600" width="78" height="78" as="geometry" />
        </mxCell>
        <mxCell id="UmNjkbrYyaK0S5LqLpap-7" style="edgeStyle=orthogonalEdgeStyle;rounded=0;orthogonalLoop=1;jettySize=auto;html=1;startArrow=open;startFill=0;endArrow=open;endFill=0;strokeWidth=2;strokeColor=#808080;" edge="1" parent="1" source="UEzPUAAOIrF-is8g5C7q-111" target="UEzPUAAOIrF-is8g5C7q-109">
          <mxGeometry relative="1" as="geometry">
            <mxPoint x="299" y="238" as="sourcePoint" />
            <mxPoint x="60" y="370" as="targetPoint" />
          </mxGeometry>
        </mxCell>
        <mxCell id="UmNjkbrYyaK0S5LqLpap-26" value="Public subnet" style="points=[[0,0],[0.25,0],[0.5,0],[0.75,0],[1,0],[1,0.25],[1,0.5],[1,0.75],[1,1],[0.75,1],[0.5,1],[0.25,1],[0,1],[0,0.75],[0,0.5],[0,0.25]];outlineConnect=0;gradientColor=none;html=1;whiteSpace=wrap;fontSize=12;fontStyle=0;container=1;pointerEvents=0;collapsible=0;recursiveResize=0;shape=mxgraph.aws4.group;grIcon=mxgraph.aws4.group_security_group;grStroke=0;strokeColor=#7AA116;fillColor=#F2F6E8;verticalAlign=top;align=left;spacingLeft=30;fontColor=#248814;dashed=0;" vertex="1" parent="1">
          <mxGeometry x="580" y="310" width="179" height="180.5" as="geometry" />
        </mxCell>
        <mxCell id="UmNjkbrYyaK0S5LqLpap-28" value="Private subnet" style="points=[[0,0],[0.25,0],[0.5,0],[0.75,0],[1,0],[1,0.25],[1,0.5],[1,0.75],[1,1],[0.75,1],[0.5,1],[0.25,1],[0,1],[0,0.75],[0,0.5],[0,0.25]];outlineConnect=0;gradientColor=none;html=1;whiteSpace=wrap;fontSize=12;fontStyle=0;container=1;pointerEvents=0;collapsible=0;recursiveResize=0;shape=mxgraph.aws4.group;grIcon=mxgraph.aws4.group_security_group;grStroke=0;strokeColor=#00A4A6;fillColor=#E6F6F7;verticalAlign=top;align=left;spacingLeft=30;fontColor=#147EBA;dashed=0;" vertex="1" parent="1">
          <mxGeometry x="790" y="310" width="159" height="180.5" as="geometry" />
        </mxCell>
        <mxCell id="UmNjkbrYyaK0S5LqLpap-29" value="Lambda&lt;br&gt;function" style="outlineConnect=0;fontColor=#232F3E;gradientColor=none;fillColor=#D05C17;strokeColor=none;dashed=0;verticalLabelPosition=bottom;verticalAlign=top;align=center;html=1;fontSize=12;fontStyle=0;aspect=fixed;pointerEvents=1;shape=mxgraph.aws4.lambda_function;labelBackgroundColor=none;" vertex="1" parent="UmNjkbrYyaK0S5LqLpap-28">
          <mxGeometry x="40.5" y="51.25" width="78" height="78" as="geometry" />
        </mxCell>
        <mxCell id="UmNjkbrYyaK0S5LqLpap-34" style="edgeStyle=orthogonalEdgeStyle;rounded=0;orthogonalLoop=1;jettySize=auto;html=1;startArrow=open;startFill=0;endArrow=open;endFill=0;strokeWidth=2;strokeColor=#808080;entryX=0.979;entryY=0.509;entryDx=0;entryDy=0;entryPerimeter=0;" edge="1" parent="1" source="UmNjkbrYyaK0S5LqLpap-31" target="UmNjkbrYyaK0S5LqLpap-29">
          <mxGeometry relative="1" as="geometry">
            <mxPoint x="471" y="551.5" as="sourcePoint" />
            <mxPoint x="912" y="410.5" as="targetPoint" />
          </mxGeometry>
        </mxCell>
        <mxCell id="UmNjkbrYyaK0S5LqLpap-39" value="" style="group" vertex="1" connectable="0" parent="1">
          <mxGeometry x="804.5" y="120" width="130" height="360" as="geometry" />
        </mxCell>
        <mxCell id="UmNjkbrYyaK0S5LqLpap-37" value="" style="rounded=0;whiteSpace=wrap;html=1;fillColor=none;strokeColor=#D86613;" vertex="1" parent="UmNjkbrYyaK0S5LqLpap-39">
          <mxGeometry y="-10.285714285714285" width="130" height="370.2857142857142" as="geometry" />
        </mxCell>
        <mxCell id="UEzPUAAOIrF-is8g5C7q-113" value="Lambda" style="outlineConnect=0;fontColor=#232F3E;gradientColor=#F78E04;gradientDirection=north;fillColor=#D05C17;strokeColor=#ffffff;dashed=0;verticalLabelPosition=middle;verticalAlign=middle;align=left;html=1;fontSize=12;fontStyle=0;aspect=fixed;shape=mxgraph.aws4.resourceIcon;resIcon=mxgraph.aws4.lambda;labelBackgroundColor=none;spacingTop=3;labelPosition=right;" parent="UmNjkbrYyaK0S5LqLpap-39" vertex="1">
          <mxGeometry y="-10.285714285714285" width="27.36842105263158" height="27.36842105263158" as="geometry" />
        </mxCell>
        <mxCell id="UmNjkbrYyaK0S5LqLpap-40" style="edgeStyle=orthogonalEdgeStyle;rounded=0;orthogonalLoop=1;jettySize=auto;html=1;startArrow=open;startFill=0;endArrow=open;endFill=0;strokeWidth=2;strokeColor=#808080;" edge="1" parent="1" source="UmNjkbrYyaK0S5LqLpap-29" target="UEzPUAAOIrF-is8g5C7q-114">
          <mxGeometry relative="1" as="geometry">
            <mxPoint x="840" y="195" as="sourcePoint" />
            <mxPoint x="459" y="280" as="targetPoint" />
            <Array as="points">
              <mxPoint x="780" y="400" />
              <mxPoint x="780" y="281" />
            </Array>
          </mxGeometry>
        </mxCell>
        <mxCell id="UmNjkbrYyaK0S5LqLpap-42" style="edgeStyle=orthogonalEdgeStyle;rounded=0;orthogonalLoop=1;jettySize=auto;html=1;startArrow=open;startFill=0;endArrow=open;endFill=0;strokeWidth=2;strokeColor=#808080;entryX=0.5;entryY=1;entryDx=0;entryDy=0;" edge="1" parent="1" source="UmNjkbrYyaK0S5LqLpap-24" target="UmNjkbrYyaK0S5LqLpap-37">
          <mxGeometry relative="1" as="geometry">
            <mxPoint x="1030" y="411" as="sourcePoint" />
            <mxPoint x="917" y="411" as="targetPoint" />
          </mxGeometry>
        </mxCell>
        <mxCell id="UmNjkbrYyaK0S5LqLpap-50" value="Maintenance" style="outlineConnect=0;gradientColor=none;fontColor=#545B64;strokeColor=none;fillColor=#879196;dashed=0;verticalLabelPosition=bottom;verticalAlign=top;align=center;html=1;fontSize=12;fontStyle=0;aspect=fixed;shape=mxgraph.aws4.illustration_desktop;pointerEvents=1;labelBackgroundColor=#ffffff;" vertex="1" parent="1">
          <mxGeometry x="40" y="49" width="100" height="91" as="geometry" />
        </mxCell>
        <mxCell id="UmNjkbrYyaK0S5LqLpap-51" style="edgeStyle=orthogonalEdgeStyle;rounded=0;orthogonalLoop=1;jettySize=auto;html=1;startArrow=open;startFill=0;endArrow=open;endFill=0;strokeWidth=2;strokeColor=#808080;" edge="1" parent="1" source="UmNjkbrYyaK0S5LqLpap-23" target="UmNjkbrYyaK0S5LqLpap-50">
          <mxGeometry relative="1" as="geometry">
            <mxPoint x="840" y="195" as="sourcePoint" />
            <mxPoint x="459" y="280" as="targetPoint" />
            <Array as="points">
              <mxPoint x="100" y="179" />
            </Array>
          </mxGeometry>
        </mxCell>
      </root>
    </mxGraphModel>
  </diagram>
</mxfile>
